<svg width="17" height="17" viewBox="0 0 17 17" fill="none" xmlns="http://www.w3.org/2000/svg">
<path d="M5.7413 8.80672V13.3601C5.7413 13.6323 5.63313 13.8935 5.44059 14.086C5.24806 14.2786 4.98692 14.3867 4.71463 14.3867H3.50796C3.37258 14.3876 3.23836 14.3617 3.11303 14.3105C2.9877 14.2593 2.87373 14.1838 2.77769 14.0884C2.68165 13.993 2.60543 13.8795 2.55341 13.7545C2.5014 13.6295 2.47463 13.4954 2.47463 13.3601V8.80672C2.47375 8.67077 2.49987 8.536 2.55148 8.41023C2.6031 8.28446 2.67918 8.1702 2.77531 8.07407C2.87144 7.97794 2.98571 7.90186 3.11148 7.85024C3.23725 7.79862 3.37202 7.7725 3.50796 7.77339H4.71463C4.85007 7.77321 4.9842 7.79986 5.10928 7.85181C5.23435 7.90376 5.3479 7.97997 5.44336 8.07605C5.53882 8.17213 5.61429 8.28616 5.66543 8.41157C5.71657 8.53699 5.74235 8.67129 5.7413 8.80672ZM10.208 2.42005V13.3601C10.208 13.4954 10.1812 13.6295 10.1292 13.7545C10.0772 13.8795 10.001 13.993 9.90491 14.0884C9.80887 14.1838 9.6949 14.2593 9.56957 14.3105C9.44424 14.3617 9.31002 14.3876 9.17463 14.3867H7.96797C7.69506 14.3867 7.43323 14.2788 7.23963 14.0864C7.04604 13.8941 6.93639 13.633 6.93463 13.3601V2.42005C6.93638 2.14653 7.04581 1.88472 7.23922 1.69131C7.43263 1.4979 7.69445 1.38847 7.96797 1.38672H9.17463C9.44869 1.38672 9.71152 1.49559 9.90531 1.68938C10.0991 1.88316 10.208 2.146 10.208 2.42005ZM14.668 5.87339V13.3601C14.668 13.6323 14.5598 13.8935 14.3673 14.086C14.1747 14.2786 13.9136 14.3867 13.6413 14.3867H12.4346C12.2992 14.3878 12.1649 14.362 12.0395 14.3109C11.9141 14.2597 11.8 14.1842 11.704 14.0888C11.6079 13.9933 11.5317 13.8798 11.4797 13.7547C11.4278 13.6296 11.4011 13.4955 11.4013 13.3601V5.87339C11.4013 5.73769 11.428 5.60332 11.48 5.47795C11.5319 5.35258 11.608 5.23866 11.704 5.14271C11.7999 5.04675 11.9138 4.97064 12.0392 4.91871C12.1646 4.86678 12.2989 4.84005 12.4346 4.84005H13.668C13.9362 4.84871 14.1906 4.96139 14.3772 5.15425C14.5638 5.3471 14.6681 5.60501 14.668 5.87339Z" fill="url(#paint0_linear_88_1164)"/>
<defs>
<linearGradient id="paint0_linear_88_1164" x1="8.57129" y1="14.3868" x2="8.59749" y2="1.38678" gradientUnits="userSpaceOnUse">
<stop offset="0.000762915" stop-color="#29458F"/>
<stop offset="1" stop-color="#5B88FF"/>
</linearGradient>
</defs>
</svg>
