<svg width="27" height="27" viewBox="0 0 27 27" fill="none" xmlns="http://www.w3.org/2000/svg">
<g clip-path="url(#clip0_88_868)">
<mask id="mask0_88_868" style="mask-type:luminance" maskUnits="userSpaceOnUse" x="0" y="0" width="27" height="27">
<path d="M0.298828 0.522766H26.2988V26.5228H0.298828V0.522766Z" fill="white"/>
<path fill-rule="evenodd" clip-rule="evenodd" d="M18.5661 13.4507L18.1991 13.6847C17.5371 14.106 16.7364 14.2512 15.9687 14.0891C15.201 13.927 14.5273 13.4706 14.0921 12.8177L13.2991 11.6277L12.5061 12.8177C12.0709 13.4706 11.3972 13.927 10.6295 14.0891C9.86173 14.2512 9.06106 14.106 8.39909 13.6847L8.03209 13.4507L8.84109 16.5227H17.7571L18.5661 13.4507ZM6.95309 10.3927C6.18509 9.90472 5.21709 10.6117 5.44909 11.4917L7.10309 17.7777C7.15935 17.9911 7.2846 18.1798 7.45933 18.3146C7.63405 18.4493 7.84844 18.5225 8.06909 18.5227H18.5271C18.7479 18.5227 18.9625 18.4497 19.1375 18.3149C19.3124 18.1801 19.4378 17.9912 19.4941 17.7777L21.1481 11.4917C21.3801 10.6117 20.4121 9.90472 19.6441 10.3927L17.1241 11.9967C16.9034 12.1372 16.6365 12.1855 16.3806 12.1315C16.1247 12.0775 15.9002 11.9254 15.7551 11.7077L14.1301 9.27073C14.0388 9.13377 13.915 9.02147 13.7699 8.9438C13.6248 8.86614 13.4627 8.8255 13.2981 8.8255C13.1335 8.8255 12.9714 8.86614 12.8263 8.9438C12.6811 9.02147 12.5574 9.13377 12.4661 9.27073L10.8411 11.7077C10.6962 11.9255 10.4717 12.0779 10.2158 12.1321C9.95984 12.1863 9.69286 12.1381 9.47209 11.9977L6.95309 10.3927Z" fill="black"/>
<path d="M14.2988 7.02277C14.2988 7.28798 14.1935 7.54234 14.0059 7.72987C13.8184 7.91741 13.564 8.02277 13.2988 8.02277C13.0336 8.02277 12.7793 7.91741 12.5917 7.72987C12.4042 7.54234 12.2988 7.28798 12.2988 7.02277C12.2988 6.75755 12.4042 6.5032 12.5917 6.31566C12.7793 6.12812 13.0336 6.02277 13.2988 6.02277C13.564 6.02277 13.8184 6.12812 14.0059 6.31566C14.1935 6.5032 14.2988 6.75755 14.2988 7.02277ZM22.2988 9.02277C22.2988 9.28798 22.1935 9.54234 22.0059 9.72987C21.8184 9.91741 21.564 10.0228 21.2988 10.0228C21.0336 10.0228 20.7793 9.91741 20.5917 9.72987C20.4042 9.54234 20.2988 9.28798 20.2988 9.02277C20.2988 8.75755 20.4042 8.5032 20.5917 8.31566C20.7793 8.12812 21.0336 8.02277 21.2988 8.02277C21.564 8.02277 21.8184 8.12812 22.0059 8.31566C22.1935 8.5032 22.2988 8.75755 22.2988 9.02277ZM6.29883 9.02277C6.29883 9.28798 6.19347 9.54234 6.00593 9.72987C5.8184 9.91741 5.56404 10.0228 5.29883 10.0228C5.03361 10.0228 4.77926 9.91741 4.59172 9.72987C4.40419 9.54234 4.29883 9.28798 4.29883 9.02277C4.29883 8.75755 4.40419 8.5032 4.59172 8.31566C4.77926 8.12812 5.03361 8.02277 5.29883 8.02277C5.56404 8.02277 5.8184 8.12812 6.00593 8.31566C6.19347 8.5032 6.29883 8.75755 6.29883 9.02277Z" fill="black"/>
<path fill-rule="evenodd" clip-rule="evenodd" d="M7.79883 19.7728C7.79883 19.5075 7.90419 19.2532 8.09172 19.0657C8.27926 18.8781 8.53361 18.7728 8.79883 18.7728H18.0498C18.315 18.7728 18.5694 18.8781 18.7569 19.0657C18.9445 19.2532 19.0498 19.5075 19.0498 19.7728C19.0498 20.038 18.9445 20.2923 18.7569 20.4799C18.5694 20.6674 18.315 20.7728 18.0498 20.7728H8.79883C8.53361 20.7728 8.27926 20.6674 8.09172 20.4799C7.90419 20.2923 7.79883 20.038 7.79883 19.7728Z" fill="black"/>
</mask>
<g mask="url(#mask0_88_868)">
<path d="M13.2988 26.5228C20.4785 26.5228 26.2988 20.7025 26.2988 13.5228C26.2988 6.34306 20.4785 0.522766 13.2988 0.522766C6.11913 0.522766 0.298828 6.34306 0.298828 13.5228C0.298828 20.7025 6.11913 26.5228 13.2988 26.5228Z" fill="white"/>
</g>
</g>
<defs>
<clipPath id="clip0_88_868">
<rect width="26" height="26" fill="white" transform="translate(0.298828 0.522766)"/>
</clipPath>
</defs>
</svg>
