<svg width="17" height="16" viewBox="0 0 17 16" fill="none" xmlns="http://www.w3.org/2000/svg">
<path d="M1.71484 7.5505C1.71484 3.76336 4.78484 0.693359 8.57199 0.693359C12.3591 0.693359 15.4291 3.76336 15.4291 7.5505C15.4291 11.3376 12.3591 14.4076 8.57199 14.4076C4.78484 14.4076 1.71484 11.3376 1.71484 7.5505ZM8.7357 8.04879C9.58542 8.25793 9.83999 8.53507 9.83999 9.00307C9.83999 9.48936 9.51284 9.85736 8.7357 9.9165V8.04879ZM8.22227 6.99936C7.49542 6.81736 7.22256 6.51307 7.22256 6.09936C7.22256 5.68593 7.56799 5.30879 8.22256 5.22707L8.22227 6.99936ZM8.7357 7.12193V5.22707C9.31742 5.29965 9.72627 5.63136 9.78542 6.20422H10.7306C10.6943 5.17279 9.8717 4.49107 8.7357 4.39993V3.63222H8.22227V4.39993C7.07713 4.4865 6.25942 5.15879 6.25942 6.17679C6.25942 7.09907 6.88199 7.61736 8.03599 7.88536L8.22227 7.93079V9.91193C7.49084 9.83479 7.14542 9.44393 7.0637 8.91222H6.12313C6.15456 10.0028 7.06827 10.6525 8.22227 10.7391V11.5022H8.7357V10.7391C9.89456 10.6571 10.8034 10.0256 10.8034 8.91222C10.8034 7.9445 10.1491 7.45365 8.95399 7.1765L8.7357 7.12193Z" fill="url(#paint0_linear_88_1171)"/>
<defs>
<linearGradient id="paint0_linear_88_1171" x1="8.57199" y1="14.4077" x2="8.59791" y2="0.693415" gradientUnits="userSpaceOnUse">
<stop offset="0.000762915" stop-color="#29458F"/>
<stop offset="1" stop-color="#5B88FF"/>
</linearGradient>
</defs>
</svg>
