<svg width="22" height="21" viewBox="0 0 22 21" fill="none" xmlns="http://www.w3.org/2000/svg">
<path fill-rule="evenodd" clip-rule="evenodd" d="M19.5872 5.00788L20.6353 6.17149C20.9281 6.49677 21.0797 6.92501 21.0568 7.36204C21.0339 7.79907 20.8383 8.20912 20.5132 8.50201L17.0933 11.5819L15.8818 10.2367C15.7899 10.1345 15.6612 10.073 15.5239 10.0657C15.3866 10.0584 15.2521 10.106 15.1498 10.1979C15.0476 10.2898 14.9861 10.4186 14.9788 10.5559C14.9716 10.6932 15.0191 10.8277 15.1111 10.9299L16.3242 12.2751L7.95609 19.8097C7.63081 20.1024 7.20257 20.254 6.76554 20.2311C6.32851 20.2082 5.91846 20.0127 5.62557 19.6875L4.57749 18.5239C5.41925 17.6491 5.44236 16.2462 4.60225 15.312C4.20739 14.8661 3.65836 14.5863 3.06555 14.5287C2.47275 14.4711 1.88013 14.6401 1.40686 15.0017L0.769761 14.2937C0.476992 13.9684 0.325391 13.5401 0.348295 13.1031C0.371199 12.6661 0.566732 12.256 0.891898 11.9631L9.28805 4.40379L10.3543 5.58886C10.3988 5.64299 10.4537 5.68755 10.5159 5.71984C10.5781 5.75212 10.6462 5.77147 10.716 5.7767C10.7859 5.78194 10.8561 5.77295 10.9224 5.75029C10.9887 5.72763 11.0497 5.69177 11.1017 5.64486C11.1538 5.59796 11.1958 5.54099 11.2252 5.4774C11.2546 5.41381 11.2708 5.34492 11.2728 5.27489C11.2748 5.20486 11.2626 5.13515 11.237 5.06997C11.2113 5.00478 11.1727 4.94548 11.1234 4.89564L10.0572 3.71057L13.449 0.657128C13.7743 0.364359 14.2025 0.212759 14.6395 0.235663C15.0766 0.258567 15.4866 0.454099 15.7795 0.779266L16.4166 1.48568C16.3737 1.5187 16.3324 1.55501 16.2912 1.59132C15.3339 2.45289 15.2712 3.94165 16.1476 4.9171C17.0257 5.8909 18.5128 5.98333 19.4701 5.12176C19.5113 5.08545 19.5509 5.04749 19.5872 5.00788ZM11.6796 6.34479C11.5778 6.4368 11.5166 6.56545 11.5095 6.70253C11.5023 6.83961 11.5499 6.97391 11.6417 7.07597L13.7114 9.37513C13.8033 9.47734 13.9321 9.53885 14.0694 9.54613C14.2067 9.5534 14.3412 9.50585 14.4434 9.41392C14.5456 9.32199 14.6071 9.19323 14.6144 9.05595C14.6217 8.91867 14.5741 8.78413 14.4822 8.68192L12.4108 6.38275C12.3188 6.28089 12.1902 6.21968 12.0531 6.21257C11.916 6.20545 11.7817 6.253 11.6796 6.34479ZM9.70893 12.998L10.5689 12.7867C10.6436 12.7682 10.7117 12.7292 10.7654 12.674C10.8191 12.6189 10.8563 12.5498 10.8728 12.4745C10.8893 12.3993 10.8844 12.321 10.8587 12.2484C10.833 12.1758 10.7875 12.1119 10.7273 12.0638L10.0143 11.4977L10.0638 10.5866C10.0681 10.5103 10.0512 10.4342 10.0148 10.367C9.97842 10.2997 9.92408 10.2439 9.85784 10.2057C9.79159 10.1676 9.71605 10.1486 9.63963 10.1508C9.56321 10.1531 9.48892 10.1765 9.42504 10.2185L8.67736 10.7153L7.84881 10.3786C7.77722 10.3498 7.69898 10.3416 7.62297 10.355C7.54697 10.3684 7.47623 10.4028 7.41882 10.4544C7.3614 10.5059 7.3196 10.5726 7.29816 10.6467C7.27672 10.7209 7.2765 10.7995 7.29754 10.8738L7.54511 11.7337L6.97403 12.4253C6.92527 12.4842 6.89386 12.5556 6.88332 12.6314C6.87278 12.7072 6.88353 12.7844 6.91435 12.8545C6.94517 12.9245 6.99486 12.9846 7.05786 13.028C7.12087 13.0714 7.19471 13.0965 7.27113 13.1003L8.18386 13.1449L8.67241 13.914C8.71391 13.979 8.77281 14.0311 8.84241 14.0644C8.91201 14.0976 8.98953 14.1107 9.06618 14.1021C9.14283 14.0935 9.21553 14.0636 9.27605 14.0157C9.33656 13.9679 9.38246 13.9041 9.40854 13.8315L9.70893 12.998Z" fill="white"/>
</svg>
